<?xml version="1.0" encoding="utf-8"?>
<!-- Generator: Adobe Illustrator 14.0.0, SVG Export Plug-In  -->
<!DOCTYPE svg PUBLIC "-//W3C//DTD SVG 1.1//EN" "http://www.w3.org/Graphics/SVG/1.1/DTD/svg11.dtd" [
	<!ENTITY ns_flows "http://ns.adobe.com/Flows/1.0/">
]>
<svg version="1.1"
	 xmlns="http://www.w3.org/2000/svg" xmlns:xlink="http://www.w3.org/1999/xlink" xmlns:a="http://ns.adobe.com/AdobeSVGViewerExtensions/3.0/"
	 x="0px" y="0px" width="828px" height="104px" viewBox="0 0 828 104" enable-background="new 0 0 828 104" xml:space="preserve">
<defs>
</defs>
<polygon points="215.953,35.536 249.901,35.536 249.901,41.381 235.783,41.381 235.783,83.604 229.743,83.604 229.743,41.381 
	215.953,41.381 "/>
<path d="M270.391,35.536h20.621c6.568,0,11.623,3.547,11.623,14.58c0,12.345-6.105,13.459-8.141,13.921l9.849,19.568h-6.634
	l-9.52-19.24l-11.755-0.921v20.161h-6.042V35.536z M290.749,58.323c3.086,0,5.78-0.265,5.78-8.208c0-7.75-2.892-8.8-5.78-8.8
	h-14.316v17.008H290.749z"/>
<path d="M342.366,35.206c11.36,0,18.716,2.169,18.716,24.691c0,21.215-6.896,23.972-18.716,23.972
	c-11.821,0-18.846-2.102-18.846-23.972C323.52,37.375,331.333,35.206,342.366,35.206 M342.366,78.021
	c9.522,0,12.673-2.69,12.673-18.124c0-18.385-4.201-18.846-12.673-18.846c-8.342,0-12.805,0.394-12.805,18.846
	C329.561,75.725,332.58,78.021,342.366,78.021"/>
<polygon points="385.841,35.536 399.038,74.674 412.83,35.536 419.331,35.536 402.192,83.604 395.757,83.604 379.341,35.536 "/>
<path d="M448.094,35.534h6.371l16.546,48.07h-6.892l-3.941-12.676h-18.191l-4.137,12.676h-7.026L448.094,35.534z M458.339,65.219
	l-7.094-21.015l-7.354,21.015H458.339z"/>
<path d="M504.439,35.01c4.333,0,11.426,0.722,16.22,1.772v4.795c-0.066,0-9.521-0.722-15.628-0.722
	c-7.816,0-10.705,3.151-10.705,18.715c0,10.768,2.299,18.582,10.705,18.582c6.894,0,15.628-0.458,15.628-0.458v4.728
	c-4.531,0.987-11.887,1.575-16.22,1.575c-12.149,0-16.156-10.114-16.156-24.558C488.283,44.072,491.372,35.01,504.439,35.01"/>
<rect x="542.79" y="35.534" width="6.041" height="48.069"/>
<path d="M586.394,35.01c4.465,0,11.887,0.788,17.138,1.838v4.794c-0.393,0-9.783-0.853-16.546-0.853
	c-8.274,0-10.049,5.777-10.049,18.65c0,13.986,2.363,18.582,10.114,18.647c4.856,0.065,11.424-3.02,11.424-3.02V63.184h-9.848
	v-4.009c2.692-0.785,6.238-1.575,11.425-1.575c1.379,0,2.89,0,4.466,0.132v25.872h-4.466l-1.443-3.216
	c-2.431,1.509-6.238,3.479-12.082,3.547c-13.594,0.263-15.632-10.77-15.632-24.627C570.895,45.977,573.326,35.01,586.394,35.01"/>
<path d="M627.896,35.536h6.043V62.59c0,15.303,4.464,15.501,11.951,15.501c6.37,0,11.558-0.723,11.558-15.501V35.536h6.105V62.59
	c0,21.21-9.718,21.345-17.663,21.345c-8.931,0-17.994,0.525-17.994-21.345V35.536z"/>
<path d="M686.276,47.026c0-9.522,5.648-11.885,13.003-11.885c4.399-0.066,14.121,1.116,17.008,1.642v4.86
	c-4.203-0.263-15.695-0.658-16.349-0.658c-4.401-0.195-7.617,0.262-7.617,6.239v3.811c0,5.383,2.361,5.909,6.236,5.909h8.865
	c8.931,0,10.574,6.368,10.574,11.687v4.138c0,9.785-6.766,11.363-13.268,11.363c-4.596,0-13.461-0.922-17.008-1.708v-4.861
	c2.627,0.265,10.378,0.725,16.482,0.725c2.759,0,7.75-0.198,7.75-5.45v-3.939c0-3.481-1.05-5.912-5.124-5.912h-8.665
	c-10.836,0-11.889-6.502-11.889-11.688V47.026z"/>
<polygon points="737.172,35.536 771.122,35.536 771.122,41.381 757.002,41.381 757.002,83.604 750.96,83.604 750.96,41.381 
	737.172,41.381 "/>
<path d="M809.342,35.206c11.36,0,18.715,2.169,18.715,24.691c0,21.215-6.896,23.972-18.715,23.972
	c-11.821,0-18.848-2.102-18.848-23.972C790.495,37.375,798.308,35.206,809.342,35.206 M809.342,78.021
	c9.521,0,12.675-2.69,12.675-18.124c0-18.385-4.203-18.846-12.675-18.846c-8.343,0-12.805,0.394-12.805,18.846
	C796.538,75.725,799.556,78.021,809.342,78.021"/>
<path d="M11.958,42.563c1.473,0,2.667-1.195,2.667-2.667V18.765c0-1.474-1.194-2.666-2.667-2.666s-2.664,1.192-2.664,2.666v21.131
	C9.294,41.368,10.486,42.563,11.958,42.563 M21.248,16.099c-1.473,0-2.667,1.192-2.667,2.666v27.143
	c-0.095,0.778-0.441,1.664-1.526,1.664H6.855c-1.082,0-1.429-0.886-1.522-1.666V18.765c0-1.474-1.194-2.666-2.666-2.666
	C1.192,16.099,0,17.291,0,18.765l0.007,27.467c0.191,2.683,2.17,6.674,6.849,6.674h2.439v36.731c0,1.47,1.191,2.663,2.664,2.663
	s2.667-1.193,2.667-2.663V52.906h2.429c4.687,0,6.667-3.991,6.858-6.864V18.765C23.913,17.291,22.722,16.099,21.248,16.099
	 M163.278,16.218c-0.215-0.066-5.369-1.616-9.785,1.634c-3.716,2.739-5.603,7.846-5.603,15.179v23.414
	c0,7.872,4.064,10.199,6.489,10.883c1.403,0.399,2.889-0.42,3.292-1.841c0.402-1.415-0.424-2.89-1.84-3.288
	c-1.729-0.49-2.607-2.427-2.607-5.754V33.031c0-5.432,1.173-9.187,3.393-10.854c1.046-0.788,2.238-1.024,3.204-1.055v68.516
	c0,1.47,1.192,2.663,2.667,2.663c1.471,0,2.664-1.193,2.664-2.663V18.765C165.153,17.596,164.395,16.565,163.278,16.218 M84.903,0
	c-28.75,0-52.14,23.391-52.14,52.144c0,28.753,23.39,52.146,52.14,52.146c13.939,0,27.042-5.433,36.899-15.3
	c0.252-0.251,0.43-0.553,0.561-0.872l0.013-0.027c0.125-0.31,0.189-0.637,0.191-0.974c0-0.014-0.002-0.027-0.002-0.04
	c-0.002-0.134,0.006-0.269-0.018-0.398c-0.089-0.541-0.35-1.021-0.719-1.404c-0.015-0.018-0.022-0.041-0.039-0.062l-14.567-14.569
	c9.444-11.356,8.856-28.296-1.789-38.94c-5.465-5.467-12.731-8.479-20.459-8.479c-7.729,0-14.998,3.012-20.464,8.479
	c-11.281,11.279-11.281,29.637,0,40.922c5.464,5.464,12.733,8.476,20.462,8.476c6.832,0,13.295-2.36,18.484-6.684l12.593,12.598
	c-8.595,7.691-19.531,11.94-31.147,11.94c-25.811,0-46.811-20.999-46.811-46.811c0-25.811,21-46.811,46.811-46.811
	c25.81,0,46.807,21,46.807,46.811c0,6.406-1.267,12.607-3.763,18.437c-0.58,1.352,0.047,2.92,1.4,3.499
	c1.361,0.584,2.925-0.046,3.502-1.4c2.783-6.491,4.193-13.4,4.193-20.535C137.043,23.391,113.655,0,84.903,0 M101.661,68.851
	c-4.458,4.459-10.384,6.913-16.688,6.913c-6.306,0-12.231-2.454-16.69-6.911c-9.203-9.205-9.203-24.179,0-33.381
	c4.458-4.458,10.386-6.913,16.692-6.913c6.304,0,12.228,2.455,16.687,6.913C110.864,44.674,110.864,59.647,101.661,68.851
	 M77.479,40.94c-1.042-1.042-2.73-1.042-3.771,0c-2.993,2.99-4.645,6.97-4.645,11.201c-0.002,4.233,1.646,8.213,4.638,11.203
	c0.521,0.521,1.204,0.78,1.885,0.78c0.685,0,1.367-0.259,1.888-0.78c1.04-1.042,1.04-2.73,0-3.771
	c-1.984-1.986-3.078-4.622-3.076-7.43c0-2.808,1.096-5.447,3.082-7.432C78.519,43.67,78.519,41.982,77.479,40.94"/>
</svg>
